<?xml version="1.0" encoding="utf-8"?>

<!DOCTYPE svg PUBLIC "-//W3C//DTD SVG 1.1//EN" "http://www.w3.org/Graphics/SVG/1.1/DTD/svg11.dtd">
<!-- Uploaded to: SVG Repo, www.svgrepo.com, Generator: SVG Repo Mixer Tools -->
<svg version="1.1" id="_x32_" xmlns="http://www.w3.org/2000/svg" xmlns:xlink="http://www.w3.org/1999/xlink" 
	 width="800px" height="800px" viewBox="0 0 512 512"  xml:space="preserve">
<style type="text/css">
<![CDATA[
	.st0{fill:#000000;}
]]>
</style>
<g>
	<path class="st0" d="M162.933,20.267C13.729,76.064-40.63,175.595,31.87,245.705c7.75,7.453,15.031,14.813,22.063,22.047
		l42.078,42.078c4.313,4.313,7.609,15.219,1.688,20.297c-6.828,5.844-17.516,1.625-21.828-2.688l-14.859-14.875
		c-10.172,17.672-12.422,39.141-0.609,64.203c22.375,47.515,96.953,70.453,147.734,57.062c11.391-3.047,41-9.797,64.688-3.031
		l65.063,64.828c13.203,13.188,34.594,13.188,47.781-0.016l116.438-116.437c13.188-13.188,13.188-34.594,0-47.75l-79.391-79.406
		c1.547-15.906-0.297-33.094-6.328-51.672C367.151,48.642,287.823-26.467,162.933,20.267z M451.354,340.361L349.839,441.876
		l-35.844-35.828l101.531-101.516L451.354,340.361z"/>
</g>
</svg>