<?xml version="1.0" encoding="UTF-8"?>
<!DOCTYPE svg PUBLIC "-//W3C//DTD SVG 1.1//EN" "http://www.w3.org/Graphics/SVG/1.1/DTD/svg11.dtd">
<svg xmlns="http://www.w3.org/2000/svg" version="1.1" width="500px" height="500px" style="shape-rendering:geometricPrecision; text-rendering:geometricPrecision; image-rendering:optimizeQuality; fill-rule:evenodd; clip-rule:evenodd" xmlns:xlink="http://www.w3.org/1999/xlink">
<g><path style="opacity:1" fill="#e37e7e" d="M 258.5,81.5 C 254.38,81.1238 250.38,80.6238 246.5,80C 245.386,81.5699 244.053,82.9032 242.5,84C 236.16,85.8381 229.827,87.6714 223.5,89.5C 231.075,85.7126 238.741,81.8793 246.5,78C 251.133,77.1577 255.133,78.3243 258.5,81.5 Z"/></g>
<g><path style="opacity:1" fill="#e38985" d="M 258.5,81.5 C 265.024,84.2635 271.357,87.2635 277.5,90.5C 269.638,90.3022 263.305,87.3022 258.5,81.5 Z"/></g>
<g><path style="opacity:1" fill="#db8180" d="M 223.5,89.5 C 221.859,91.2575 219.859,92.7575 217.5,94C 212.528,95.3605 207.528,96.5272 202.5,97.5C 209.322,94.5979 216.322,91.9312 223.5,89.5 Z"/></g>
<g><path style="opacity:0.573" fill="#e6a2a3" d="M 277.5,90.5 C 282.132,91.5961 286.466,93.2628 290.5,95.5C 286.873,94.5707 283.207,93.7373 279.5,93C 278.244,92.5831 277.577,91.7498 277.5,90.5 Z"/></g>
<g><path style="opacity:1" fill="#dc9592" d="M 290.5,95.5 C 297.643,97.3657 304.643,99.3657 311.5,101.5C 303.636,102.005 296.636,100.005 290.5,95.5 Z"/></g>
<g><path style="opacity:1" fill="#db8b88" d="M 202.5,97.5 C 200.706,98.8565 198.706,100.023 196.5,101C 186.912,103.376 177.245,104.876 167.5,105.5C 179.119,103.106 190.786,100.44 202.5,97.5 Z"/></g>
<g><path style="opacity:1" fill="#f65959" d="M 258.5,81.5 C 263.305,87.3022 269.638,90.3022 277.5,90.5C 277.577,91.7498 278.244,92.5831 279.5,93C 283.207,93.7373 286.873,94.5707 290.5,95.5C 296.636,100.005 303.636,102.005 311.5,101.5C 311.611,102.117 311.944,102.617 312.5,103C 316.813,103.735 321.147,104.235 325.5,104.5C 331.213,106.365 337.213,107.365 343.5,107.5C 344.167,107.5 344.833,107.5 345.5,107.5C 346.78,108.931 348.447,109.598 350.5,109.5C 350.369,122.506 350.036,135.506 349.5,148.5C 349.5,149.167 349.5,149.833 349.5,150.5C 348.017,157.279 347.35,164.279 347.5,171.5C 347.5,172.833 347.5,174.167 347.5,175.5C 345.17,186.137 342.837,196.804 340.5,207.5C 339.071,210.308 338.405,213.308 338.5,216.5C 338.567,217.959 338.234,219.292 337.5,220.5C 336.833,221.5 336.167,222.5 335.5,223.5C 333.789,226.559 331.789,229.559 329.5,232.5C 329.167,231.667 328.833,230.833 328.5,230C 330.194,226.394 331.194,222.561 331.5,218.5C 331.5,217.833 331.5,217.167 331.5,216.5C 334.506,212.689 336.673,208.356 338,203.5C 338.501,199.49 339.001,195.49 339.5,191.5C 341.869,173.924 343.203,156.258 343.5,138.5C 344.268,137.737 344.768,136.737 345,135.5C 345.831,128.808 345.664,122.142 344.5,115.5C 334.626,113.209 324.626,111.376 314.5,110C 311.237,108.774 307.904,107.607 304.5,106.5C 304.081,105.328 303.415,104.328 302.5,103.5C 301.312,104.84 299.812,105.507 298,105.5C 295.269,104.383 292.435,103.717 289.5,103.5C 288.167,103.5 286.833,103.5 285.5,103.5C 280.942,101.717 276.608,99.7169 272.5,97.5C 267.178,94.0614 261.511,91.3947 255.5,89.5C 252.988,88.0721 250.322,87.5721 247.5,88C 238.148,93.0072 228.481,97.5072 218.5,101.5C 209.33,104.334 200.33,107.334 191.5,110.5C 190.833,110.5 190.167,110.5 189.5,110.5C 184.578,110.87 179.911,111.87 175.5,113.5C 171.21,113.198 167.21,113.864 163.5,115.5C 160.833,115.5 158.167,115.5 155.5,115.5C 155.173,125.015 155.506,134.348 156.5,143.5C 156.5,145.5 156.5,147.5 156.5,149.5C 156.503,162.211 157.17,174.878 158.5,187.5C 158.66,189.199 158.494,190.866 158,192.5C 157.329,191.748 156.496,191.414 155.5,191.5C 154.379,189.046 153.546,186.379 153,183.5C 151.093,164.549 149.76,145.549 149,126.5C 148.768,125.263 148.268,124.263 147.5,123.5C 147.5,118.833 147.5,114.167 147.5,109.5C 153.111,108.436 158.778,107.603 164.5,107C 165.056,106.617 165.389,106.117 165.5,105.5C 166.167,105.5 166.833,105.5 167.5,105.5C 177.245,104.876 186.912,103.376 196.5,101C 198.706,100.023 200.706,98.8565 202.5,97.5C 207.528,96.5272 212.528,95.3605 217.5,94C 219.859,92.7575 221.859,91.2575 223.5,89.5C 229.827,87.6714 236.16,85.8381 242.5,84C 244.053,82.9032 245.386,81.5699 246.5,80C 250.38,80.6238 254.38,81.1238 258.5,81.5 Z"/></g>
<g><path style="opacity:1" fill="#b34647" d="M 255.5,89.5 C 261.511,91.3947 267.178,94.0614 272.5,97.5C 266.156,96.1601 260.489,93.4934 255.5,89.5 Z"/></g>
<g><path style="opacity:0.486" fill="#e4a9aa" d="M 311.5,101.5 C 316.391,102.01 321.058,103.01 325.5,104.5C 321.147,104.235 316.813,103.735 312.5,103C 311.944,102.617 311.611,102.117 311.5,101.5 Z"/></g>
<g><path style="opacity:1" fill="#732026" d="M 285.5,103.5 C 286.833,103.5 288.167,103.5 289.5,103.5C 290.167,104.167 290.833,104.833 291.5,105.5C 289.102,105.741 287.102,105.074 285.5,103.5 Z"/></g>
<g><path style="opacity:1" fill="#5d191c" d="M 218.5,101.5 C 210.086,105.86 201.086,108.86 191.5,110.5C 200.33,107.334 209.33,104.334 218.5,101.5 Z"/></g>
<g><path style="opacity:0.659" fill="#dea4a3" d="M 325.5,104.5 C 331.75,104.771 337.75,105.771 343.5,107.5C 337.213,107.365 331.213,106.365 325.5,104.5 Z"/></g>
<g><path style="opacity:0.855" fill="#dd9994" d="M 165.5,105.5 C 165.389,106.117 165.056,106.617 164.5,107C 158.778,107.603 153.111,108.436 147.5,109.5C 147.611,108.883 147.944,108.383 148.5,108C 154.177,107.165 159.844,106.331 165.5,105.5 Z"/></g>
<g><path style="opacity:1" fill="#661f1f" d="M 306.5,109.5 C 308.898,109.259 310.898,109.926 312.5,111.5C 310.102,111.741 308.102,111.074 306.5,109.5 Z"/></g>
<g><path style="opacity:1" fill="#4f1416" d="M 189.5,110.5 C 189.082,111.222 188.416,111.722 187.5,112C 183.509,112.642 179.509,113.142 175.5,113.5C 179.911,111.87 184.578,110.87 189.5,110.5 Z"/></g>
<g><path style="opacity:1" fill="#120202" d="M 255.5,89.5 C 260.489,93.4934 266.156,96.1601 272.5,97.5C 276.608,99.7169 280.942,101.717 285.5,103.5C 287.102,105.074 289.102,105.741 291.5,105.5C 294.489,106.506 297.489,107.673 300.5,109C 302.473,109.495 304.473,109.662 306.5,109.5C 308.102,111.074 310.102,111.741 312.5,111.5C 322.595,112.66 332.595,114.327 342.5,116.5C 341.629,141.55 340.295,166.55 338.5,191.5C 336.808,199.966 334.475,208.299 331.5,216.5C 331.5,217.167 331.5,217.833 331.5,218.5C 318.37,252.148 297.37,279.982 268.5,302C 263.167,305 257.833,308 252.5,311C 250.5,311.667 248.5,311.667 246.5,311C 242.193,308.711 237.86,306.378 233.5,304C 194.122,275.407 169.789,237.241 160.5,189.5C 158.717,176.07 157.383,162.737 156.5,149.5C 156.5,147.5 156.5,145.5 156.5,143.5C 156.334,134.827 156.5,126.16 157,117.5C 159.277,116.883 161.444,116.216 163.5,115.5C 167.21,113.864 171.21,113.198 175.5,113.5C 179.509,113.142 183.509,112.642 187.5,112C 188.416,111.722 189.082,111.222 189.5,110.5C 190.167,110.5 190.833,110.5 191.5,110.5C 201.086,108.86 210.086,105.86 218.5,101.5C 228.481,97.5072 238.148,93.0072 247.5,88C 250.322,87.5721 252.988,88.0721 255.5,89.5 Z"/></g>
<g><path style="opacity:1" fill="#ac4446" d="M 279.5,107.5 C 286.828,110.385 294.161,113.052 301.5,115.5C 294.127,114.246 287.127,112.246 280.5,109.5C 280.167,108.833 279.833,108.167 279.5,107.5 Z"/></g>
<g><path style="opacity:1" fill="#953938" d="M 227.5,104.5 C 221.899,108.592 215.566,110.925 208.5,111.5C 214.67,108.996 221.004,106.662 227.5,104.5 Z"/></g>
<g><path style="opacity:1" fill="#fd5657" d="M 280.5,109.5 C 287.127,112.246 294.127,114.246 301.5,115.5C 306.216,115.846 310.883,116.513 315.5,117.5C 321.625,119.532 327.959,121.198 334.5,122.5C 334.667,134.838 334.5,147.171 334,159.5C 332.768,170.129 331.935,180.796 331.5,191.5C 330.626,194.789 329.959,198.123 329.5,201.5C 322.315,230.216 308.648,255.216 288.5,276.5C 283.925,275.455 281.258,277.455 280.5,282.5C 278.801,282.66 277.134,282.494 275.5,282C 277.796,279.232 279.796,276.399 281.5,273.5C 285.766,273.465 286.599,272.465 284,270.5C 282.334,272.403 280.5,272.737 278.5,271.5C 276.944,272.547 275.277,273.214 273.5,273.5C 273.799,275.604 273.466,277.604 272.5,279.5C 269.034,277.655 268.7,275.321 271.5,272.5C 269.016,271.106 269.016,269.606 271.5,268C 269.541,265.864 268.207,263.364 267.5,260.5C 268.167,258.5 268.833,256.5 269.5,254.5C 268.67,252.172 267.837,249.838 267,247.5C 264.528,250.528 263.861,253.862 265,257.5C 262.637,259.907 260.137,260.074 257.5,258C 259.092,254.47 260.759,250.97 262.5,247.5C 263.211,244.101 264.877,241.268 267.5,239C 268.591,231.731 268.591,224.231 267.5,216.5C 262.803,212.65 260.636,207.65 261,201.5C 260.365,200.034 259.531,198.7 258.5,197.5C 259.629,195.471 259.129,195.137 257,196.5C 254.863,194.679 254.03,192.346 254.5,189.5C 254.5,189.167 254.5,188.833 254.5,188.5C 255.434,183.661 256.268,178.661 257,173.5C 259.039,172.022 259.872,170.022 259.5,167.5C 261.833,167.5 264.167,167.5 266.5,167.5C 268.895,168.363 271.229,168.363 273.5,167.5C 275.138,164.696 276.971,162.029 279,159.5C 279.823,155.5 281.323,151.834 283.5,148.5C 284.117,148.389 284.617,148.056 285,147.5C 285.815,142.648 285.648,137.981 284.5,133.5C 280.19,130.641 276.19,130.975 272.5,134.5C 269.833,134.5 267.167,134.5 264.5,134.5C 266.539,123.045 261.872,117.878 250.5,119C 247.955,120.275 245.955,122.108 244.5,124.5C 243.35,125.85 242.683,125.684 242.5,124C 244.305,120.889 246.472,118.056 249,115.5C 249.333,115.833 249.667,116.167 250,116.5C 255.004,114.624 260.17,113.79 265.5,114C 268.177,115.463 269.177,117.463 268.5,120C 271.989,121.853 273.156,120.687 272,116.5C 268.321,111.151 263.154,108.651 256.5,109C 256.516,106.394 257.016,103.894 258,101.5C 259.487,102.155 260.653,103.155 261.5,104.5C 263.396,105.466 265.396,105.799 267.5,105.5C 267.5,106.5 267.5,107.5 267.5,108.5C 271.85,108.987 276.183,109.32 280.5,109.5 Z"/></g>
<g><path style="opacity:1" fill="#fd5757" d="M 255.5,97.5 C 263.697,100.364 271.697,103.697 279.5,107.5C 279.833,108.167 280.167,108.833 280.5,109.5C 276.183,109.32 271.85,108.987 267.5,108.5C 267.5,107.5 267.5,106.5 267.5,105.5C 265.396,105.799 263.396,105.466 261.5,104.5C 260.653,103.155 259.487,102.155 258,101.5C 257.016,103.894 256.516,106.394 256.5,109C 263.154,108.651 268.321,111.151 272,116.5C 273.156,120.687 271.989,121.853 268.5,120C 269.177,117.463 268.177,115.463 265.5,114C 260.17,113.79 255.004,114.624 250,116.5C 249.667,116.167 249.333,115.833 249,115.5C 246.472,118.056 244.305,120.889 242.5,124C 242.683,125.684 243.35,125.85 244.5,124.5C 244.5,127.833 244.5,131.167 244.5,134.5C 243.167,134.5 241.833,134.5 240.5,134.5C 240.5,135.5 240.5,136.5 240.5,137.5C 235.026,141.804 231.026,147.137 228.5,153.5C 227.778,153.918 227.278,154.584 227,155.5C 226.17,161.528 226.336,167.528 227.5,173.5C 229.873,174.55 230.873,176.383 230.5,179C 230.333,180.167 230.167,181.333 230,182.5C 229.692,181.692 229.192,181.025 228.5,180.5C 227.646,181.522 226.646,182.355 225.5,183C 227.41,183.408 228.41,184.575 228.5,186.5C 227.281,190.32 227.281,193.987 228.5,197.5C 228.244,205.084 228.911,212.584 230.5,220C 230.07,222.717 228.737,224.884 226.5,226.5C 225.549,225.674 224.549,225.508 223.5,226C 224.337,227.011 224.67,228.178 224.5,229.5C 222.589,229.574 221.422,230.574 221,232.5C 219.579,237.59 218.079,242.59 216.5,247.5C 215.178,247.33 214.011,247.663 213,248.5C 212.186,253.02 212.353,257.354 213.5,261.5C 213.5,261.833 213.5,262.167 213.5,262.5C 221.452,263.47 229.452,262.803 237.5,260.5C 238.52,258.568 238.687,256.568 238,254.5C 234.847,252.186 232.68,249.186 231.5,245.5C 234.604,241.48 237.604,237.314 240.5,233C 243.215,232.122 245.549,230.622 247.5,228.5C 248.429,229.689 248.762,231.022 248.5,232.5C 247.347,234.807 246.18,237.14 245,239.5C 244.474,246.171 243.974,252.837 243.5,259.5C 242.136,262.772 241.136,266.272 240.5,270C 240.387,271.699 241.053,272.866 242.5,273.5C 244.32,275.448 246.654,276.448 249.5,276.5C 254.42,278.408 259.42,278.741 264.5,277.5C 265.583,276.635 265.749,275.635 265,274.5C 261.977,272.302 259.144,269.969 256.5,267.5C 255.149,265.608 254.482,263.442 254.5,261C 255.418,258.239 256.084,255.406 256.5,252.5C 256.5,252.167 256.5,251.833 256.5,251.5C 257.5,251.5 258.5,251.5 259.5,251.5C 259.687,249.436 260.187,247.436 261,245.5C 261.278,246.416 261.778,247.082 262.5,247.5C 260.759,250.97 259.092,254.47 257.5,258C 260.137,260.074 262.637,259.907 265,257.5C 263.861,253.862 264.528,250.528 267,247.5C 267.837,249.838 268.67,252.172 269.5,254.5C 268.833,256.5 268.167,258.5 267.5,260.5C 268.207,263.364 269.541,265.864 271.5,268C 269.016,269.606 269.016,271.106 271.5,272.5C 268.7,275.321 269.034,277.655 272.5,279.5C 273.466,277.604 273.799,275.604 273.5,273.5C 275.277,273.214 276.944,272.547 278.5,271.5C 280.5,272.737 282.334,272.403 284,270.5C 286.599,272.465 285.766,273.465 281.5,273.5C 279.796,276.399 277.796,279.232 275.5,282C 277.134,282.494 278.801,282.66 280.5,282.5C 281.258,277.455 283.925,275.455 288.5,276.5C 277.895,288.104 265.561,297.437 251.5,304.5C 247.502,303.172 243.502,301.838 239.5,300.5C 239.631,299.761 239.464,299.094 239,298.5C 236.147,296.839 233.647,294.839 231.5,292.5C 231.833,291.833 232.167,291.167 232.5,290.5C 233.814,291.313 234.981,292.313 236,293.5C 236.749,292.365 236.583,291.365 235.5,290.5C 233.298,289.22 231.132,289.22 229,290.5C 228.71,288.956 228.044,287.623 227,286.5C 223.983,288.021 222.15,287.021 221.5,283.5C 219.929,282.691 218.262,282.357 216.5,282.5C 213.695,278.547 210.528,274.88 207,271.5C 206.517,270.552 206.351,269.552 206.5,268.5C 205.5,268.5 204.5,268.5 203.5,268.5C 188.35,250.207 177.35,229.541 170.5,206.5C 166.897,193.418 164.897,180.085 164.5,166.5C 163.584,151.843 163.417,137.176 164,122.5C 170.703,121.264 177.203,119.598 183.5,117.5C 187.833,116.833 192.167,116.167 196.5,115.5C 200.228,115.205 203.895,114.539 207.5,113.5C 207.863,112.817 208.196,112.15 208.5,111.5C 215.566,110.925 221.899,108.592 227.5,104.5C 230.076,103.512 232.743,102.512 235.5,101.5C 239.693,101.319 243.359,99.8189 246.5,97C 249.555,96.3658 252.555,96.5325 255.5,97.5 Z"/></g>
<g><path style="opacity:1" fill="#b9484a" d="M 255.5,97.5 C 252.555,96.5325 249.555,96.3658 246.5,97C 243.359,99.8189 239.693,101.319 235.5,101.5C 240.056,97.3879 245.389,95.2213 251.5,95C 253.32,95.2004 254.653,96.0337 255.5,97.5 Z"/></g>
<g><path style="opacity:1" fill="#cf5050" d="M 289.5,103.5 C 292.435,103.717 295.269,104.383 298,105.5C 299.812,105.507 301.312,104.84 302.5,103.5C 303.415,104.328 304.081,105.328 304.5,106.5C 307.904,107.607 311.237,108.774 314.5,110C 324.626,111.376 334.626,113.209 344.5,115.5C 345.664,122.142 345.831,128.808 345,135.5C 344.768,136.737 344.268,137.737 343.5,138.5C 343.825,130.981 343.492,123.648 342.5,116.5C 332.595,114.327 322.595,112.66 312.5,111.5C 310.898,109.926 308.898,109.259 306.5,109.5C 304.473,109.662 302.473,109.495 300.5,109C 297.489,107.673 294.489,106.506 291.5,105.5C 290.833,104.833 290.167,104.167 289.5,103.5 Z"/></g>
<g><path style="opacity:0.716" fill="#da9491" d="M 345.5,107.5 C 347.262,107.357 348.929,107.691 350.5,108.5C 351.738,121.842 351.738,135.175 350.5,148.5C 350.167,148.5 349.833,148.5 349.5,148.5C 350.036,135.506 350.369,122.506 350.5,109.5C 348.447,109.598 346.78,108.931 345.5,107.5 Z"/></g>
<g><path style="opacity:1" fill="#9e3a3c" d="M 208.5,111.5 C 208.196,112.15 207.863,112.817 207.5,113.5C 203.895,114.539 200.228,115.205 196.5,115.5C 200.195,113.568 204.195,112.235 208.5,111.5 Z"/></g>
<g><path style="opacity:1" fill="#cc5357" d="M 272.5,134.5 C 272.582,136.252 271.749,137.252 270,137.5C 267.943,136.277 265.777,135.277 263.5,134.5C 263.345,131.273 263.178,127.94 263,124.5C 257.621,119.175 252.288,119.175 247,124.5C 246.667,127.833 246.333,131.167 246,134.5C 243.982,135.223 242.148,136.223 240.5,137.5C 240.5,136.5 240.5,135.5 240.5,134.5C 241.833,134.5 243.167,134.5 244.5,134.5C 244.5,131.167 244.5,127.833 244.5,124.5C 245.955,122.108 247.955,120.275 250.5,119C 261.872,117.878 266.539,123.045 264.5,134.5C 267.167,134.5 269.833,134.5 272.5,134.5 Z"/></g>
<g><path style="opacity:1" fill="#390f10" d="M 163.5,115.5 C 161.444,116.216 159.277,116.883 157,117.5C 156.5,126.16 156.334,134.827 156.5,143.5C 155.506,134.348 155.173,125.015 155.5,115.5C 158.167,115.5 160.833,115.5 163.5,115.5 Z"/></g>
<g><path style="opacity:1" fill="#090101" d="M 272.5,134.5 C 276.19,130.975 280.19,130.641 284.5,133.5C 284.726,138.562 284.392,143.562 283.5,148.5C 281.323,151.834 279.823,155.5 279,159.5C 276.971,162.029 275.138,164.696 273.5,167.5C 271.229,168.363 268.895,168.363 266.5,167.5C 263.77,166.183 260.937,166.183 258,167.5C 256.408,171.029 255.074,174.695 254,178.5C 253.612,181.849 253.779,185.183 254.5,188.5C 254.5,188.833 254.5,189.167 254.5,189.5C 252.901,190.799 252.401,192.465 253,194.5C 257.983,198.558 260.316,203.892 260,210.5C 265.279,213.894 267.446,218.728 266.5,225C 267.439,229.87 265.939,233.704 262,236.5C 259.58,241.33 257.746,246.33 256.5,251.5C 256.5,251.833 256.5,252.167 256.5,252.5C 253.641,255.92 252.474,259.92 253,264.5C 254.039,265.71 255.206,266.71 256.5,267.5C 259.144,269.969 261.977,272.302 265,274.5C 265.749,275.635 265.583,276.635 264.5,277.5C 259.42,278.741 254.42,278.408 249.5,276.5C 247.491,274.935 245.157,273.935 242.5,273.5C 242.322,272.305 241.989,271.138 241.5,270C 242.726,266.598 243.393,263.098 243.5,259.5C 243.974,252.837 244.474,246.171 245,239.5C 246.18,237.14 247.347,234.807 248.5,232.5C 252.554,229.691 252.221,227.358 247.5,225.5C 244.281,228.038 241.114,230.704 238,233.5C 234.586,238.066 231.42,242.732 228.5,247.5C 225.861,248.706 225.028,250.706 226,253.5C 228.761,254.796 231.595,255.963 234.5,257C 235.451,257.718 235.617,258.551 235,259.5C 227.914,260.815 220.747,261.815 213.5,262.5C 213.5,262.167 213.5,261.833 213.5,261.5C 214.372,255.053 216.538,249.053 220,243.5C 221.544,238.752 223.044,234.086 224.5,229.5C 227.45,227.885 230.116,225.885 232.5,223.5C 233.867,220.988 233.534,218.655 231.5,216.5C 230.873,210.855 230.373,205.189 230,199.5C 229.722,198.584 229.222,197.918 228.5,197.5C 228.336,194.813 228.503,192.146 229,189.5C 231.171,186.487 232.671,183.154 233.5,179.5C 233.333,178.5 233.167,177.5 233,176.5C 230.957,174.792 229.29,172.792 228,170.5C 227.758,164.833 227.925,159.167 228.5,153.5C 231.026,147.137 235.026,141.804 240.5,137.5C 242.148,136.223 243.982,135.223 246,134.5C 246.333,131.167 246.667,127.833 247,124.5C 252.288,119.175 257.621,119.175 263,124.5C 263.178,127.94 263.345,131.273 263.5,134.5C 265.777,135.277 267.943,136.277 270,137.5C 271.749,137.252 272.582,136.252 272.5,134.5 Z"/></g>
<g><path style="opacity:1" fill="#b44b4c" d="M 183.5,117.5 C 177.203,119.598 170.703,121.264 164,122.5C 163.417,137.176 163.584,151.843 164.5,166.5C 164.167,166.5 163.833,166.5 163.5,166.5C 162.641,151.184 162.308,135.851 162.5,120.5C 169.486,119.407 176.486,118.407 183.5,117.5 Z"/></g>
<g><path style="opacity:1" fill="#d65656" d="M 315.5,117.5 C 322.601,118.359 329.601,119.693 336.5,121.5C 336.5,129.833 336.5,138.167 336.5,146.5C 335.67,155.991 335.17,165.658 335,175.5C 333.871,180.969 332.704,186.302 331.5,191.5C 331.935,180.796 332.768,170.129 334,159.5C 334.5,147.171 334.667,134.838 334.5,122.5C 327.959,121.198 321.625,119.532 315.5,117.5 Z"/></g>
<g><path style="opacity:0.875" fill="#888888" d="M 367.5,130.5 C 369.225,130.843 369.725,131.843 369,133.5C 367.333,135.167 365.667,136.833 364,138.5C 363.777,135.275 364.943,132.609 367.5,130.5 Z"/></g>
<g><path style="opacity:1" fill="#440f11" d="M 284.5,133.5 C 285.648,137.981 285.815,142.648 285,147.5C 284.617,148.056 284.117,148.389 283.5,148.5C 284.392,143.562 284.726,138.562 284.5,133.5 Z"/></g>
<g><path style="opacity:0.855" fill="#8e8e8e" d="M 128.5,135.5 C 132.104,136.588 133.937,138.921 134,142.5C 130.805,141.149 128.972,138.815 128.5,135.5 Z"/></g>
<g><path style="opacity:0.643" fill="#a1a1a1" d="M 360.5,138.5 C 362.085,139.002 362.585,140.002 362,141.5C 360.737,143.797 358.903,144.63 356.5,144C 357.665,142.008 358.998,140.175 360.5,138.5 Z"/></g>
<g><path style="opacity:1" fill="#d7726f" d="M 147.5,123.5 C 148.268,124.263 148.768,125.263 149,126.5C 149.76,145.549 151.093,164.549 153,183.5C 153.546,186.379 154.379,189.046 155.5,191.5C 155.5,193.167 155.5,194.833 155.5,196.5C 154.833,195.5 154.167,194.5 153.5,193.5C 153.784,191.585 153.451,189.919 152.5,188.5C 152.768,186.901 152.434,185.568 151.5,184.5C 151.5,184.167 151.5,183.833 151.5,183.5C 151.884,179.511 151.217,175.845 149.5,172.5C 149.5,171.833 149.167,171.5 148.5,171.5C 150.432,170.024 150.765,168.357 149.5,166.5C 149.81,163.287 149.477,160.287 148.5,157.5C 147.683,146.394 147.349,135.06 147.5,123.5 Z"/></g>
<g><path style="opacity:0.69" fill="#959595" d="M 135.5,142.5 C 138.929,143.397 140.262,145.397 139.5,148.5C 136.929,147.272 135.595,145.272 135.5,142.5 Z"/></g>
<g><path style="opacity:1" fill="#c05053" d="M 271.5,140.5 C 273.595,140.76 274.928,141.926 275.5,144C 274.774,146.893 273.107,149.059 270.5,150.5C 270.167,149.667 269.833,148.833 269.5,148C 270.86,145.73 271.527,143.23 271.5,140.5 Z"/></g>
<g><path style="opacity:0.945" fill="#868686" d="M 354.5,145.5 C 355.239,145.369 355.906,145.536 356.5,146C 355.695,147.972 354.361,149.472 352.5,150.5C 352.167,150.167 351.833,149.833 351.5,149.5C 352.524,148.148 353.524,146.815 354.5,145.5 Z"/></g>
<g><path style="opacity:0.62" fill="#989899" d="M 141.5,148.5 C 142.815,149.476 144.148,150.476 145.5,151.5C 146.59,152.609 146.59,153.609 145.5,154.5C 142.929,153.272 141.595,151.272 141.5,148.5 Z"/></g>
<g><path style="opacity:0.816" fill="#989494" d="M 349.5,163.5 C 349.5,159.167 349.5,154.833 349.5,150.5C 349.5,149.833 349.5,149.167 349.5,148.5C 349.833,148.5 350.167,148.5 350.5,148.5C 350.334,152.514 350.501,156.514 351,160.5C 356.986,155.672 363.32,151.339 370,147.5C 370.684,148.784 370.517,149.951 369.5,151C 362.683,154.995 356.016,159.162 349.5,163.5 Z"/></g>
<g><path style="opacity:1" fill="#1f0705" d="M 342.5,116.5 C 343.492,123.648 343.825,130.981 343.5,138.5C 343.203,156.258 341.869,173.924 339.5,191.5C 339.167,191.5 338.833,191.5 338.5,191.5C 340.295,166.55 341.629,141.55 342.5,116.5 Z"/></g>
<g><path style="opacity:0.722" fill="#9f9c9b" d="M 148.5,157.5 C 149.477,160.287 149.81,163.287 149.5,166.5C 141.787,162.317 134.454,157.65 127.5,152.5C 127.833,152.167 128.167,151.833 128.5,151.5C 135.084,155.375 141.584,159.375 148,163.5C 148.495,161.527 148.662,159.527 148.5,157.5 Z"/></g>
<g><path style="opacity:1" fill="#c76262" d="M 349.5,150.5 C 349.5,154.833 349.5,159.167 349.5,163.5C 349.232,165.099 349.566,166.432 350.5,167.5C 350.5,168.167 350.5,168.833 350.5,169.5C 349.833,169.5 349.5,169.833 349.5,170.5C 348.833,170.833 348.167,171.167 347.5,171.5C 347.35,164.279 348.017,157.279 349.5,150.5 Z"/></g>
<g><path style="opacity:0.651" fill="#999999" d="M 391.5,164.5 C 393.608,162.941 395.941,161.608 398.5,160.5C 398.833,161 399.167,161.5 399.5,162C 397.377,164.909 394.71,165.743 391.5,164.5 Z"/></g>
<g><path style="opacity:0.737" fill="#919090" d="M 350.5,169.5 C 350.5,168.833 350.5,168.167 350.5,167.5C 354.831,163.507 359.831,161.507 365.5,161.5C 360.605,164.446 355.605,167.113 350.5,169.5 Z"/></g>
<g><path style="opacity:0.631" fill="#9d9d9d" d="M 391.5,164.5 C 389.297,167.119 386.631,168.119 383.5,167.5C 385.536,165.016 388.202,164.016 391.5,164.5 Z"/></g>
<g><path style="opacity:0.604" fill="#959595" d="M 101.5,165.5 C 104.157,165.162 106.49,165.829 108.5,167.5C 106.926,168.631 105.259,168.798 103.5,168C 102.244,167.583 101.577,166.75 101.5,165.5 Z"/></g>
<g><path style="opacity:0.667" fill="#928989" d="M 149.5,166.5 C 150.765,168.357 150.432,170.024 148.5,171.5C 143.212,169.523 138.212,167.023 133.5,164C 134,163.5 134.5,163 135,162.5C 139.473,164.932 143.973,167.265 148.5,169.5C 149.386,168.675 149.719,167.675 149.5,166.5 Z"/></g>
<g><path style="opacity:0.471" fill="#ababab" d="M 112.5,167.5 C 114.2,168.016 115.533,169.016 116.5,170.5C 116.167,170.833 115.833,171.167 115.5,171.5C 113.465,170.959 111.465,170.292 109.5,169.5C 110.602,168.824 111.602,168.158 112.5,167.5 Z"/></g>
<g><path style="opacity:0.533" fill="#a4a4a4" d="M 377.5,167.5 C 381.29,167.008 381.956,167.841 379.5,170C 372.914,172.033 372.248,171.2 377.5,167.5 Z"/></g>
<g><path style="opacity:0.537" fill="#a4a4a4" d="M 117.5,171.5 C 120.597,170.212 123.597,170.712 126.5,173C 126,173.5 125.5,174 125,174.5C 122.55,173.358 120.05,172.358 117.5,171.5 Z"/></g>
<g><path style="opacity:1" fill="#280d0b" d="M 336.5,146.5 C 337.174,161.999 336.174,177.332 333.5,192.5C 332.145,195.592 330.812,198.592 329.5,201.5C 329.959,198.123 330.626,194.789 331.5,191.5C 332.704,186.302 333.871,180.969 335,175.5C 335.17,165.658 335.67,155.991 336.5,146.5 Z"/></g>
<g><path style="opacity:0.592" fill="#9a9a9a" d="M 365.5,173.5 C 366.707,170.694 368.707,170.028 371.5,171.5C 369.827,173.086 367.827,173.753 365.5,173.5 Z"/></g>
<g><path style="opacity:0.643" fill="#a7a7a7" d="M 128.5,172.5 C 136.486,174.812 136.486,175.812 128.5,175.5C 128.5,174.5 128.5,173.5 128.5,172.5 Z"/></g>
<g><path style="opacity:0.043" fill="#fefffe" d="M 365.5,173.5 C 364.833,174.167 364.833,174.167 365.5,173.5 Z"/></g>
<g><path style="opacity:0.494" fill="#b3a19f" d="M 349.5,170.5 C 349.167,172.5 348.833,174.5 348.5,176.5C 352.099,175.301 355.765,174.301 359.5,173.5C 359.5,174.5 359.5,175.5 359.5,176.5C 356.325,176.503 353.492,177.503 351,179.5C 350.667,179.167 350.333,178.833 350,178.5C 349.148,179.571 348.315,180.571 347.5,181.5C 347.5,179.5 347.5,177.5 347.5,175.5C 347.5,174.167 347.5,172.833 347.5,171.5C 348.167,171.167 348.833,170.833 349.5,170.5 Z"/></g>
<g><path style="opacity:0.788" fill="#ab9d9d" d="M 149.5,172.5 C 151.217,175.845 151.884,179.511 151.5,183.5C 150.596,182.791 150.263,181.791 150.5,180.5C 147.525,180.287 144.858,179.287 142.5,177.5C 141.105,178.815 140.105,178.481 139.5,176.5C 141.078,175.928 142.578,175.594 144,175.5C 145.667,176.5 147.333,177.5 149,178.5C 149.495,176.527 149.662,174.527 149.5,172.5 Z"/></g>
<g><path style="opacity:1" fill="#d35150" d="M 228.5,153.5 C 227.925,159.167 227.758,164.833 228,170.5C 229.29,172.792 230.957,174.792 233,176.5C 233.167,177.5 233.333,178.5 233.5,179.5C 232.671,183.154 231.171,186.487 229,189.5C 228.503,192.146 228.336,194.813 228.5,197.5C 227.281,193.987 227.281,190.32 228.5,186.5C 228.41,184.575 227.41,183.408 225.5,183C 226.646,182.355 227.646,181.522 228.5,180.5C 229.192,181.025 229.692,181.692 230,182.5C 230.167,181.333 230.333,180.167 230.5,179C 230.873,176.383 229.873,174.55 227.5,173.5C 226.336,167.528 226.17,161.528 227,155.5C 227.278,154.584 227.778,153.918 228.5,153.5 Z"/></g>
<g><path style="opacity:1" fill="#9d3d3c" d="M 156.5,149.5 C 157.383,162.737 158.717,176.07 160.5,189.5C 159.833,188.833 159.167,188.167 158.5,187.5C 157.17,174.878 156.503,162.211 156.5,149.5 Z"/></g>
<g><path style="opacity:1" fill="#cc6a68" d="M 347.5,175.5 C 347.5,177.5 347.5,179.5 347.5,181.5C 347.5,181.833 347.5,182.167 347.5,182.5C 346.28,184.05 346.28,185.716 347.5,187.5C 347.167,187.5 346.833,187.5 346.5,187.5C 345.539,189.265 345.205,191.265 345.5,193.5C 345.167,194.833 344.833,196.167 344.5,197.5C 344.443,198.609 344.11,199.609 343.5,200.5C 342.076,202.515 341.41,204.848 341.5,207.5C 341.167,207.5 340.833,207.5 340.5,207.5C 342.837,196.804 345.17,186.137 347.5,175.5 Z"/></g>
<g><path style="opacity:0.578" fill="#9a9697" d="M 151.5,184.5 C 152.434,185.568 152.768,186.901 152.5,188.5C 145.713,187.265 138.713,185.598 131.5,183.5C 132.667,183.167 133.833,182.833 135,182.5C 139.725,183.934 144.391,184.934 149,185.5C 150.07,185.472 150.903,185.139 151.5,184.5 Z"/></g>
<g><path style="opacity:0.51" fill="#a29d9d" d="M 347.5,187.5 C 346.28,185.716 346.28,184.05 347.5,182.5C 347.791,183.649 348.624,184.316 350,184.5C 355.333,183.167 360.667,181.833 366,180.5C 366.833,180.833 367.667,181.167 368.5,181.5C 361.384,184.035 354.384,186.035 347.5,187.5 Z"/></g>
<g><path style="opacity:1" fill="#d15958" d="M 266.5,167.5 C 264.167,167.5 261.833,167.5 259.5,167.5C 259.872,170.022 259.039,172.022 257,173.5C 256.268,178.661 255.434,183.661 254.5,188.5C 253.779,185.183 253.612,181.849 254,178.5C 255.074,174.695 256.408,171.029 258,167.5C 260.937,166.183 263.77,166.183 266.5,167.5 Z"/></g>
<g><path style="opacity:1" fill="#340f0f" d="M 163.5,166.5 C 163.833,166.5 164.167,166.5 164.5,166.5C 164.897,180.085 166.897,193.418 170.5,206.5C 169.859,204.958 168.859,203.624 167.5,202.5C 164.668,190.687 163.335,178.687 163.5,166.5 Z"/></g>
<g><path style="opacity:0.192" fill="#d0d0d0" d="M 353.5,191.5 C 355.035,190.212 356.701,190.212 358.5,191.5C 358.376,192.107 358.043,192.44 357.5,192.5C 356.432,191.566 355.099,191.232 353.5,191.5 Z"/></g>
<g><path style="opacity:0.569" fill="#969091" d="M 152.5,188.5 C 153.451,189.919 153.784,191.585 153.5,193.5C 149.617,194.21 145.784,194.543 142,194.5C 141.517,193.552 141.351,192.552 141.5,191.5C 144.448,191.223 147.281,191.556 150,192.5C 151.706,191.692 152.539,190.359 152.5,188.5 Z"/></g>
<g><path style="opacity:0.439" fill="#979191" d="M 346.5,187.5 C 346.5,188.833 346.5,190.167 346.5,191.5C 348.833,191.5 351.167,191.5 353.5,191.5C 355.099,191.232 356.432,191.566 357.5,192.5C 353.702,193.483 349.702,193.817 345.5,193.5C 345.205,191.265 345.539,189.265 346.5,187.5 Z"/></g>
<g><path style="opacity:0.624" fill="#918e8d" d="M 153.5,193.5 C 154.167,194.5 154.833,195.5 155.5,196.5C 155.5,198.167 155.5,199.833 155.5,201.5C 154.739,200.609 153.739,199.942 152.5,199.5C 141.839,201.167 131.173,202.833 120.5,204.5C 119.396,203.369 119.729,202.535 121.5,202C 132.199,200.638 142.866,199.138 153.5,197.5C 153.5,196.167 153.5,194.833 153.5,193.5 Z"/></g>
<g><path style="opacity:0.659" fill="#909090" d="M 344.5,197.5 C 357.207,198.671 369.873,200.171 382.5,202C 381.874,202.75 381.374,203.584 381,204.5C 368.59,202.742 356.09,201.409 343.5,200.5C 344.11,199.609 344.443,198.609 344.5,197.5 Z"/></g>
<g><path style="opacity:0.329" fill="#c1c1c1" d="M 115.5,201.5 C 117.625,202.368 117.791,203.368 116,204.5C 114.317,203.824 114.15,202.824 115.5,201.5 Z"/></g>
<g><path style="opacity:1" fill="#bd484a" d="M 338.5,191.5 C 338.833,191.5 339.167,191.5 339.5,191.5C 339.001,195.49 338.501,199.49 338,203.5C 336.673,208.356 334.506,212.689 331.5,216.5C 334.475,208.299 336.808,199.966 338.5,191.5 Z"/></g>
<g><path style="opacity:0.251" fill="#c1c1c1" d="M 384.5,201.5 C 385.675,201.281 386.675,201.614 387.5,202.5C 385.948,203.798 384.948,203.465 384.5,201.5 Z"/></g>
<g><path style="opacity:0.596" fill="#949494" d="M 388.5,203.5 C 391.024,202.2 393.691,202.2 396.5,203.5C 393.844,204.614 391.177,204.614 388.5,203.5 Z"/></g>
<g><path style="opacity:1" fill="#767676" d="M 107.5,203.5 C 109.288,203.215 110.955,203.548 112.5,204.5C 110.659,205.23 108.825,205.897 107,206.5C 106.53,205.423 106.697,204.423 107.5,203.5 Z"/></g>
<g><path style="opacity:0.733" fill="#6a6a6a" d="M 403.5,203.5 C 403.611,204.117 403.944,204.617 404.5,205C 403.207,205.49 401.873,205.657 400.5,205.5C 399.325,205.719 398.325,205.386 397.5,204.5C 399.396,203.534 401.396,203.201 403.5,203.5 Z"/></g>
<g><path style="opacity:1" fill="#c64f50" d="M 228.5,197.5 C 229.222,197.918 229.722,198.584 230,199.5C 230.373,205.189 230.873,210.855 231.5,216.5C 231.674,218.861 232.007,221.194 232.5,223.5C 230.116,225.885 227.45,227.885 224.5,229.5C 224.67,228.178 224.337,227.011 223.5,226C 224.549,225.508 225.549,225.674 226.5,226.5C 228.737,224.884 230.07,222.717 230.5,220C 228.911,212.584 228.244,205.084 228.5,197.5 Z"/></g>
<g><path style="opacity:0.357" fill="#ccb9b9" d="M 343.5,200.5 C 343.5,201.833 343.5,203.167 343.5,204.5C 345.898,204.259 347.898,204.926 349.5,206.5C 348.508,206.328 347.842,206.662 347.5,207.5C 345.451,206.359 343.451,206.359 341.5,207.5C 341.41,204.848 342.076,202.515 343.5,200.5 Z"/></g>
<g><path style="opacity:0.357" fill="#cacaca" d="M 403.5,203.5 C 405.048,203.821 405.715,204.821 405.5,206.5C 403.585,206.784 401.919,206.451 400.5,205.5C 401.873,205.657 403.207,205.49 404.5,205C 403.944,204.617 403.611,204.117 403.5,203.5 Z"/></g>
<g><path style="opacity:0.48" fill="#9b9b9b" d="M 100.5,204.5 C 102.288,204.215 103.955,204.548 105.5,205.5C 103.368,206.598 101.202,207.598 99,208.5C 98.3076,207.975 97.8076,207.308 97.5,206.5C 98.6016,205.824 99.6016,205.158 100.5,204.5 Z"/></g>
<g><path style="opacity:0.627" fill="#a8a4a3" d="M 155.5,201.5 C 156.924,203.515 157.59,205.848 157.5,208.5C 156.732,207.737 156.232,206.737 156,205.5C 152.611,207.038 149.111,208.371 145.5,209.5C 144.614,208.675 144.281,207.675 144.5,206.5C 147.568,205.978 150.568,205.145 153.5,204C 154.756,203.583 155.423,202.75 155.5,201.5 Z"/></g>
<g><path style="opacity:0.616" fill="#8c8d8e" d="M 347.5,207.5 C 347.842,206.662 348.508,206.328 349.5,206.5C 351.827,206.247 353.827,206.914 355.5,208.5C 352.732,209.478 350.066,209.145 347.5,207.5 Z"/></g>
<g><path style="opacity:0.557" fill="#989898" d="M 157.5,209.5 C 157.833,210.167 158.167,210.833 158.5,211.5C 151.476,214.429 144.643,217.762 138,221.5C 137.5,221 137,220.5 136.5,220C 143.008,215.446 150.008,211.946 157.5,209.5 Z"/></g>
<g><path style="opacity:0.792" fill="#a29f9f" d="M 340.5,207.5 C 340.833,207.5 341.167,207.5 341.5,207.5C 341.5,208.5 341.5,209.5 341.5,210.5C 349.594,213.202 357.261,216.869 364.5,221.5C 363.635,222.583 362.635,222.749 361.5,222C 354.79,218.93 348.124,215.763 341.5,212.5C 340.713,213.242 340.047,214.075 339.5,215C 344.634,217.969 349.634,221.136 354.5,224.5C 354,224.833 353.5,225.167 353,225.5C 348.004,222.653 343.171,219.653 338.5,216.5C 338.405,213.308 339.071,210.308 340.5,207.5 Z"/></g>
<g><path style="opacity:0.337" fill="#c3babc" d="M 158.5,211.5 C 159.458,213.302 160.125,215.302 160.5,217.5C 159.85,217.196 159.183,216.863 158.5,216.5C 154.805,219.362 150.971,222.028 147,224.5C 146.251,223.365 146.417,222.365 147.5,221.5C 150.864,218.971 154.364,216.637 158,214.5C 158.483,213.552 158.649,212.552 158.5,211.5 Z"/></g>
<g><path style="opacity:0.729" fill="#cc8486" d="M 160.5,217.5 C 162.957,220.751 164.624,224.418 165.5,228.5C 164.833,227.833 164.167,227.167 163.5,226.5C 163.068,225.29 162.401,224.29 161.5,223.5C 161.5,222.833 161.167,222.5 160.5,222.5C 161.071,221.027 161.071,219.36 160.5,217.5 Z"/></g>
<g><path style="opacity:1" fill="#6a2121" d="M 231.5,216.5 C 233.534,218.655 233.867,220.988 232.5,223.5C 232.007,221.194 231.674,218.861 231.5,216.5 Z"/></g>
<g><path style="opacity:0.102" fill="#c2c2c2" d="M 142.5,224.5 C 144.048,224.821 144.715,225.821 144.5,227.5C 141.752,227.598 141.086,226.598 142.5,224.5 Z"/></g>
<g><path style="opacity:0.776" fill="#666666" d="M 356.5,226.5 C 359.797,226.329 360.131,226.995 357.5,228.5C 356.702,228.043 356.369,227.376 356.5,226.5 Z"/></g>
<g><path style="opacity:0.867" fill="#9d9d9d" d="M 136.5,231.5 C 136.712,229.616 137.712,228.283 139.5,227.5C 140.262,229.781 139.262,231.114 136.5,231.5 Z"/></g>
<g><path style="opacity:0.586" fill="#a8a8a8" d="M 360.5,228.5 C 362.2,229.016 363.533,230.016 364.5,231.5C 362.438,232.761 360.772,232.261 359.5,230C 360.056,229.617 360.389,229.117 360.5,228.5 Z"/></g>
<g><path style="opacity:0.808" fill="#828282" d="M 160.5,222.5 C 161.167,222.5 161.5,222.833 161.5,223.5C 156.822,229.177 151.489,234.177 145.5,238.5C 144.833,238.5 144.5,238.167 144.5,237.5C 149.86,232.472 155.193,227.472 160.5,222.5 Z"/></g>
<g><path style="opacity:0.663" fill="#9b9b9b" d="M 136.5,231.5 C 135.209,233.619 133.375,235.285 131,236.5C 131.308,233.365 133.141,231.698 136.5,231.5 Z"/></g>
<g><path style="opacity:0.643" fill="#888787" d="M 337.5,220.5 C 337.33,221.822 337.663,222.989 338.5,224C 345.086,229.646 351.753,235.313 358.5,241C 357.167,241.667 355.833,241.667 354.5,241C 348.338,235.838 342.505,230.338 337,224.5C 336.617,225.056 336.117,225.389 335.5,225.5C 335.5,224.833 335.5,224.167 335.5,223.5C 336.167,222.5 336.833,221.5 337.5,220.5 Z"/></g>
<g><path style="opacity:0.694" fill="#a6a09f" d="M 165.5,231.5 C 166.167,232.833 166.833,234.167 167.5,235.5C 163.065,236.502 162.398,235.168 165.5,231.5 Z"/></g>
<g><path style="opacity:0.847" fill="#888888" d="M 335.5,228.5 C 341.631,235.403 347.297,242.737 352.5,250.5C 351.726,251.711 350.893,251.711 350,250.5C 344.618,243.958 339.452,237.291 334.5,230.5C 334.328,229.508 334.662,228.842 335.5,228.5 Z"/></g>
<g><path style="opacity:1" fill="#b18a89" d="M 333.5,230.5 C 333.343,231.873 333.51,233.207 334,234.5C 335.236,235.399 336.07,236.566 336.5,238C 336.15,239.257 335.483,239.591 334.5,239C 333.789,237.745 332.956,236.579 332,235.5C 331.148,236.571 330.315,237.571 329.5,238.5C 329.974,235.371 331.308,232.705 333.5,230.5 Z"/></g>
<g><path style="opacity:0.671" fill="#939393" d="M 365.5,232.5 C 368.918,233.538 370.585,235.538 370.5,238.5C 368.062,237.069 366.396,235.069 365.5,232.5 Z"/></g>
<g><path style="opacity:1" fill="#d88984" d="M 167.5,235.5 C 168.5,235.5 169.5,235.5 170.5,235.5C 170.547,238.969 171.213,242.302 172.5,245.5C 171.833,245.167 171.167,244.833 170.5,244.5C 170.672,243.508 170.338,242.842 169.5,242.5C 169.122,240.079 168.455,237.746 167.5,235.5 Z"/></g>
<g><path style="opacity:0.02" fill="#e3e3e3" d="M 144.5,237.5 C 144.5,238.167 144.833,238.5 145.5,238.5C 144.998,240.085 143.998,240.585 142.5,240C 143.066,239.005 143.733,238.172 144.5,237.5 Z"/></g>
<g><path style="opacity:0.49" fill="#b0b0b0" d="M 127.5,236.5 C 128.289,236.783 128.956,237.283 129.5,238C 128.094,240.449 126.094,241.449 123.5,241C 125.041,239.629 126.375,238.129 127.5,236.5 Z"/></g>
<g><path style="opacity:0.753" fill="#969494" d="M 163.5,226.5 C 164.167,227.167 164.833,227.833 165.5,228.5C 165.5,229.167 165.5,229.833 165.5,230.5C 164.883,230.389 164.383,230.056 164,229.5C 160.054,235.779 155.721,241.779 151,247.5C 150.107,248.711 149.274,248.711 148.5,247.5C 153.137,240.203 158.137,233.203 163.5,226.5 Z"/></g>
<g><path style="opacity:1" fill="#e05357" d="M 254.5,189.5 C 254.03,192.346 254.863,194.679 257,196.5C 259.129,195.137 259.629,195.471 258.5,197.5C 259.531,198.7 260.365,200.034 261,201.5C 260.636,207.65 262.803,212.65 267.5,216.5C 268.591,224.231 268.591,231.731 267.5,239C 264.877,241.268 263.211,244.101 262.5,247.5C 261.778,247.082 261.278,246.416 261,245.5C 260.187,247.436 259.687,249.436 259.5,251.5C 258.5,251.5 257.5,251.5 256.5,251.5C 257.746,246.33 259.58,241.33 262,236.5C 265.939,233.704 267.439,229.87 266.5,225C 267.446,218.728 265.279,213.894 260,210.5C 260.316,203.892 257.983,198.558 253,194.5C 252.401,192.465 252.901,190.799 254.5,189.5 Z"/></g>
<g><path style="opacity:0.706" fill="#a5a5a5" d="M 373.5,238.5 C 375.905,239.398 377.905,240.898 379.5,243C 378.5,243.667 377.5,243.667 376.5,243C 374.561,242.092 373.561,240.592 373.5,238.5 Z"/></g>
<g><path style="opacity:0.361" fill="#abadae" d="M 160.5,239.5 C 161.922,239.75 162.922,240.583 163.5,242C 161.511,242.519 160.511,241.686 160.5,239.5 Z"/></g>
<g><path style="opacity:0.898" fill="#909090" d="M 336.5,244.5 C 337.386,243.224 338.386,243.224 339.5,244.5C 338.451,247.045 337.451,247.045 336.5,244.5 Z"/></g>
<g><path style="opacity:0.824" fill="#828282" d="M 120.5,242.5 C 121.497,242.47 122.164,242.97 122.5,244C 114.739,251.185 114.072,250.685 120.5,242.5 Z"/></g>
<g><path style="opacity:0.467" fill="#a4a3a3" d="M 158.5,245.5 C 159.586,245.62 160.253,246.287 160.5,247.5C 160.376,250.578 159.043,251.578 156.5,250.5C 157.174,248.805 157.841,247.138 158.5,245.5 Z"/></g>
<g><path style="opacity:0.694" fill="#e3a09f" d="M 172.5,245.5 C 175.138,247.418 176.805,250.085 177.5,253.5C 175.336,251.178 173.669,248.511 172.5,245.5 Z"/></g>
<g><path style="opacity:0.875" fill="#8c7e80" d="M 329.5,239.5 C 329.586,240.496 329.252,241.329 328.5,242C 330.219,246.773 332.219,251.439 334.5,256C 333.365,256.749 332.365,256.583 331.5,255.5C 329.89,251.828 328.39,248.162 327,244.5C 326.303,246.584 325.136,248.251 323.5,249.5C 323.351,248.448 323.517,247.448 324,246.5C 325.873,244.028 327.706,241.695 329.5,239.5 Z"/></g>
<g><path style="opacity:0.702" fill="#7d7d7d" d="M 380.5,244.5 C 383.817,245.305 386.483,247.139 388.5,250C 386.212,250.418 384.212,249.751 382.5,248C 381.177,247.184 380.511,246.017 380.5,244.5 Z"/></g>
<g><path style="opacity:0.471" fill="#9f9d9d" d="M 169.5,242.5 C 170.338,242.842 170.672,243.508 170.5,244.5C 170.401,247.605 169.401,250.272 167.5,252.5C 166.864,249.023 167.53,245.69 169.5,242.5 Z"/></g>
<g><path style="opacity:1" fill="#d98989" d="M 323.5,249.5 C 322.921,252.331 321.588,254.664 319.5,256.5C 319.584,253.318 320.917,250.985 323.5,249.5 Z"/></g>
<g><path style="opacity:0.714" fill="#9e9e9e" d="M 339.5,248.5 C 342.068,249.574 343.735,251.574 344.5,254.5C 344,254.833 343.5,255.167 343,255.5C 340.777,253.72 339.61,251.386 339.5,248.5 Z"/></g>
<g><path style="opacity:1" fill="#e08886" d="M 177.5,253.5 C 179.048,253.821 179.715,254.821 179.5,256.5C 180.5,256.5 181.5,256.5 182.5,256.5C 182.5,257.5 182.5,258.5 182.5,259.5C 181.662,259.842 181.328,260.508 181.5,261.5C 179.805,259.103 178.472,256.437 177.5,253.5 Z"/></g>
<g><path style="opacity:0.2" fill="#b4b4b4" d="M 155.5,253.5 C 156.139,254.097 156.472,254.93 156.5,256C 156.624,258.737 155.624,259.571 153.5,258.5C 154.174,256.805 154.841,255.138 155.5,253.5 Z"/></g>
<g><path style="opacity:0.098" fill="#d5d6d5" d="M 152.5,261.5 C 153.833,262.167 153.833,262.167 152.5,261.5 Z"/></g>
<g><path style="opacity:0.412" fill="#b59ea0" d="M 318.5,258.5 C 318.5,261.167 318.5,263.833 318.5,266.5C 317.833,265.167 317.167,263.833 316.5,262.5C 316.167,262.5 315.833,262.5 315.5,262.5C 316.026,260.77 317.026,259.436 318.5,258.5 Z"/></g>
<g><path style="opacity:0.714" fill="#a4a4a4" d="M 343.5,259.5 C 343.897,258.475 344.563,258.308 345.5,259C 346.872,260.242 347.872,261.742 348.5,263.5C 347.998,264.521 347.332,264.688 346.5,264C 345.601,262.348 344.601,260.848 343.5,259.5 Z"/></g>
<g><path style="opacity:0.392" fill="#bfbdbf" d="M 181.5,263.5 C 181.232,265.099 181.566,266.432 182.5,267.5C 182.607,269.379 182.107,269.712 181,268.5C 180.22,266.613 180.387,264.946 181.5,263.5 Z"/></g>
<g><path style="opacity:0.196" fill="#adadad" d="M 152.5,262.5 C 153.639,264.929 152.973,266.929 150.5,268.5C 149.412,265.992 150.078,263.992 152.5,262.5 Z"/></g>
<g><path style="opacity:0.035" fill="#ebebeb" d="M 350.5,267.5 C 349.662,267.842 349.328,268.508 349.5,269.5C 348.224,268.614 348.224,267.614 349.5,266.5C 350.107,266.624 350.44,266.957 350.5,267.5 Z"/></g>
<g><path style="opacity:0.765" fill="#717575" d="M 316.5,262.5 C 317.167,263.833 317.833,265.167 318.5,266.5C 318.511,268.547 318.844,270.547 319.5,272.5C 319.167,273.167 318.833,273.833 318.5,274.5C 318.167,274.167 317.833,273.833 317.5,273.5C 316.574,269.906 316.241,266.24 316.5,262.5 Z"/></g>
<g><path style="opacity:0.435" fill="#9f9f9f" d="M 350.5,267.5 C 351.289,268.915 351.956,270.415 352.5,272C 350.265,273.645 349.265,272.812 349.5,269.5C 349.328,268.508 349.662,267.842 350.5,267.5 Z"/></g>
<g><path style="opacity:1" fill="#cc8282" d="M 182.5,259.5 C 185.409,263.621 188.575,267.621 192,271.5C 193.902,273.884 195.069,276.551 195.5,279.5C 191.202,274.929 187.369,269.929 184,264.5C 183.487,265.527 182.987,266.527 182.5,267.5C 181.566,266.432 181.232,265.099 181.5,263.5C 181.5,262.833 181.5,262.167 181.5,261.5C 181.328,260.508 181.662,259.842 182.5,259.5 Z"/></g>
<g><path style="opacity:1" fill="#e57773" d="M 319.5,256.5 C 319.672,257.492 319.338,258.158 318.5,258.5C 317.026,259.436 316.026,260.77 315.5,262.5C 311.598,269.401 306.931,275.734 301.5,281.5C 301.167,281.5 300.833,281.5 300.5,281.5C 300.578,278.169 301.245,275.502 302.5,273.5C 306.861,272.383 310.028,269.716 312,265.5C 312.494,263.866 312.66,262.199 312.5,260.5C 314.823,259.25 317.156,257.917 319.5,256.5 Z"/></g>
<g><path style="opacity:1" fill="#ea5758" d="M 158.5,187.5 C 159.167,188.167 159.833,188.833 160.5,189.5C 169.789,237.241 194.122,275.407 233.5,304C 237.86,306.378 242.193,308.711 246.5,311C 248.5,311.667 250.5,311.667 252.5,311C 257.833,308 263.167,305 268.5,302C 297.37,279.982 318.37,252.148 331.5,218.5C 331.194,222.561 330.194,226.394 328.5,230C 328.833,230.833 329.167,231.667 329.5,232.5C 331.789,229.559 333.789,226.559 335.5,223.5C 335.5,224.167 335.5,224.833 335.5,225.5C 335.5,226.5 335.5,227.5 335.5,228.5C 334.662,228.842 334.328,229.508 334.5,230.5C 334.167,230.5 333.833,230.5 333.5,230.5C 331.308,232.705 329.974,235.371 329.5,238.5C 329.5,238.833 329.5,239.167 329.5,239.5C 327.706,241.695 325.873,244.028 324,246.5C 323.517,247.448 323.351,248.448 323.5,249.5C 320.917,250.985 319.584,253.318 319.5,256.5C 317.156,257.917 314.823,259.25 312.5,260.5C 312.66,262.199 312.494,263.866 312,265.5C 310.028,269.716 306.861,272.383 302.5,273.5C 301.245,275.502 300.578,278.169 300.5,281.5C 299.206,282.29 298.039,283.29 297,284.5C 296.586,284.043 296.086,283.709 295.5,283.5C 294.719,284.729 294.219,286.062 294,287.5C 291.618,289.259 289.452,291.259 287.5,293.5C 285.19,295.483 282.523,296.483 279.5,296.5C 279.675,298.621 279.341,300.621 278.5,302.5C 274.945,303.054 272.612,305.054 271.5,308.5C 267.427,308.908 264.427,310.908 262.5,314.5C 259.966,314.259 258.3,315.259 257.5,317.5C 254.423,317.347 251.589,318.014 249,319.5C 246.863,318.923 244.696,318.59 242.5,318.5C 238.62,313.642 233.62,310.309 227.5,308.5C 226.415,306.413 224.749,305.08 222.5,304.5C 219.009,298.337 214.009,294.003 207.5,291.5C 203.167,287.833 199.167,283.833 195.5,279.5C 195.069,276.551 193.902,273.884 192,271.5C 188.575,267.621 185.409,263.621 182.5,259.5C 182.5,258.5 182.5,257.5 182.5,256.5C 181.5,256.5 180.5,256.5 179.5,256.5C 179.715,254.821 179.048,253.821 177.5,253.5C 176.805,250.085 175.138,247.418 172.5,245.5C 171.213,242.302 170.547,238.969 170.5,235.5C 169.5,235.5 168.5,235.5 167.5,235.5C 166.833,234.167 166.167,232.833 165.5,231.5C 165.5,231.167 165.5,230.833 165.5,230.5C 165.5,229.833 165.5,229.167 165.5,228.5C 164.624,224.418 162.957,220.751 160.5,217.5C 160.125,215.302 159.458,213.302 158.5,211.5C 158.167,210.833 157.833,210.167 157.5,209.5C 157.5,209.167 157.5,208.833 157.5,208.5C 157.59,205.848 156.924,203.515 155.5,201.5C 155.5,199.833 155.5,198.167 155.5,196.5C 155.5,194.833 155.5,193.167 155.5,191.5C 156.496,191.414 157.329,191.748 158,192.5C 158.494,190.866 158.66,189.199 158.5,187.5 Z"/></g>
<g><path style="opacity:1" fill="#6e2423" d="M 242.5,273.5 C 245.157,273.935 247.491,274.935 249.5,276.5C 246.654,276.448 244.32,275.448 242.5,273.5 Z"/></g>
<g><path style="opacity:1" fill="#c04a4b" d="M 203.5,268.5 C 204.5,268.5 205.5,268.5 206.5,268.5C 206.351,269.552 206.517,270.552 207,271.5C 210.528,274.88 213.695,278.547 216.5,282.5C 213.944,281.457 211.777,279.79 210,277.5C 207.615,274.621 205.448,271.621 203.5,268.5 Z"/></g>
<g><path style="opacity:1" fill="#661a1b" d="M 243.5,259.5 C 243.393,263.098 242.726,266.598 241.5,270C 241.989,271.138 242.322,272.305 242.5,273.5C 241.053,272.866 240.387,271.699 240.5,270C 241.136,266.272 242.136,262.772 243.5,259.5 Z"/></g>
<g><path style="opacity:1" fill="#be5052" d="M 256.5,252.5 C 256.084,255.406 255.418,258.239 254.5,261C 254.482,263.442 255.149,265.608 256.5,267.5C 255.206,266.71 254.039,265.71 253,264.5C 252.474,259.92 253.641,255.92 256.5,252.5 Z"/></g>
<g><path style="opacity:1" fill="#e45657" d="M 231.5,245.5 C 232.68,249.186 234.847,252.186 238,254.5C 238.687,256.568 238.52,258.568 237.5,260.5C 229.452,262.803 221.452,263.47 213.5,262.5C 220.747,261.815 227.914,260.815 235,259.5C 235.617,258.551 235.451,257.718 234.5,257C 231.595,255.963 228.761,254.796 226,253.5C 225.028,250.706 225.861,248.706 228.5,247.5C 229.5,246.833 230.5,246.167 231.5,245.5 Z"/></g>
<g><path style="opacity:1" fill="#db5354" d="M 224.5,229.5 C 223.044,234.086 221.544,238.752 220,243.5C 216.538,249.053 214.372,255.053 213.5,261.5C 212.353,257.354 212.186,253.02 213,248.5C 214.011,247.663 215.178,247.33 216.5,247.5C 218.079,242.59 219.579,237.59 221,232.5C 221.422,230.574 222.589,229.574 224.5,229.5 Z"/></g>
<g><path style="opacity:1" fill="#bf4c4e" d="M 248.5,232.5 C 248.762,231.022 248.429,229.689 247.5,228.5C 245.549,230.622 243.215,232.122 240.5,233C 237.604,237.314 234.604,241.48 231.5,245.5C 230.5,246.167 229.5,246.833 228.5,247.5C 231.42,242.732 234.586,238.066 238,233.5C 241.114,230.704 244.281,228.038 247.5,225.5C 252.221,227.358 252.554,229.691 248.5,232.5 Z"/></g>
<g><path style="opacity:1" fill="#dc5251" d="M 216.5,282.5 C 218.262,282.357 219.929,282.691 221.5,283.5C 222.15,287.021 223.983,288.021 227,286.5C 228.044,287.623 228.71,288.956 229,290.5C 231.132,289.22 233.298,289.22 235.5,290.5C 236.583,291.365 236.749,292.365 236,293.5C 234.981,292.313 233.814,291.313 232.5,290.5C 232.167,291.167 231.833,291.833 231.5,292.5C 233.647,294.839 236.147,296.839 239,298.5C 239.464,299.094 239.631,299.761 239.5,300.5C 230.681,296.02 223.015,290.02 216.5,282.5 Z"/></g>
<g><path style="opacity:0.796" fill="#e7908e" d="M 300.5,281.5 C 300.833,281.5 301.167,281.5 301.5,281.5C 294.738,289.601 287.071,296.601 278.5,302.5C 279.341,300.621 279.675,298.621 279.5,296.5C 282.523,296.483 285.19,295.483 287.5,293.5C 289.452,291.259 291.618,289.259 294,287.5C 294.219,286.062 294.719,284.729 295.5,283.5C 296.086,283.709 296.586,284.043 297,284.5C 298.039,283.29 299.206,282.29 300.5,281.5 Z"/></g>
<g><path style="opacity:1" fill="#e68584" d="M 207.5,291.5 C 214.009,294.003 219.009,298.337 222.5,304.5C 216.931,300.873 211.931,296.54 207.5,291.5 Z"/></g>
<g><path style="opacity:0.929" fill="#e3a4a1" d="M 222.5,304.5 C 224.749,305.08 226.415,306.413 227.5,308.5C 225.251,307.92 223.585,306.587 222.5,304.5 Z"/></g>
<g><path style="opacity:1" fill="#ad4246" d="M 239.5,300.5 C 243.502,301.838 247.502,303.172 251.5,304.5C 246.786,305.88 242.786,304.547 239.5,300.5 Z"/></g>
<g><path style="opacity:0.71" fill="#e19695" d="M 278.5,302.5 C 276.781,305.219 274.447,307.219 271.5,308.5C 272.612,305.054 274.945,303.054 278.5,302.5 Z"/></g>
<g><path style="opacity:0.749" fill="#e4a09b" d="M 271.5,308.5 C 269.025,311.241 266.025,313.241 262.5,314.5C 264.427,310.908 267.427,308.908 271.5,308.5 Z"/></g>
<g><path style="opacity:1" fill="#e28a87" d="M 227.5,308.5 C 233.62,310.309 238.62,313.642 242.5,318.5C 236.976,315.908 231.976,312.575 227.5,308.5 Z"/></g>
<g><path style="opacity:0.722" fill="#e49e9d" d="M 262.5,314.5 C 261.101,315.89 259.434,316.89 257.5,317.5C 258.3,315.259 259.966,314.259 262.5,314.5 Z"/></g>
<g><path style="opacity:0.91" fill="#e0a0a1" d="M 257.5,317.5 C 252.697,322.203 247.697,322.537 242.5,318.5C 244.696,318.59 246.863,318.923 249,319.5C 251.589,318.014 254.423,317.347 257.5,317.5 Z"/></g>
<g><path style="opacity:0.275" fill="#bbbbbb" d="M 96.5,336.5 C 107.321,335.505 118.321,335.172 129.5,335.5C 129.5,341.5 129.5,347.5 129.5,353.5C 127.833,353.5 126.167,353.5 124.5,353.5C 124.806,356.385 124.473,359.052 123.5,361.5C 123.5,359.167 123.5,356.833 123.5,354.5C 119.833,354.5 116.167,354.5 112.5,354.5C 115.833,353.833 119.167,353.167 122.5,352.5C 124.5,352.5 126.5,352.5 128.5,352.5C 128.5,347.167 128.5,341.833 128.5,336.5C 117.833,336.5 107.167,336.5 96.5,336.5 Z"/></g>
<g><path style="opacity:1" fill="#121212" d="M 199.5,347.5 C 198.566,348.568 198.232,349.901 198.5,351.5C 197.167,351.5 195.833,351.5 194.5,351.5C 190.5,351.5 186.5,351.5 182.5,351.5C 181.209,351.263 180.209,351.596 179.5,352.5C 176.939,354.677 176.939,356.844 179.5,359C 182.865,360.797 186.198,360.797 189.5,359C 186.854,358.503 184.187,358.336 181.5,358.5C 181.5,356.833 181.5,355.167 181.5,353.5C 189.833,353.5 198.167,353.5 206.5,353.5C 206.5,355.167 206.5,356.833 206.5,358.5C 205.5,358.5 204.5,358.5 203.5,358.5C 203.185,362.371 203.518,366.038 204.5,369.5C 204.261,371.467 204.594,373.301 205.5,375C 200.798,375.828 196.131,375.662 191.5,374.5C 192.127,373.583 192.461,372.583 192.5,371.5C 193.404,370.791 193.737,369.791 193.5,368.5C 193.5,368.167 193.5,367.833 193.5,367.5C 194.537,365.262 194.703,362.929 194,360.5C 193.338,362.813 192.838,365.146 192.5,367.5C 192.5,367.833 192.5,368.167 192.5,368.5C 191.662,368.842 191.328,369.508 191.5,370.5C 190.723,373.112 189.056,374.945 186.5,376C 173.363,378.197 165.863,372.697 164,359.5C 163.19,343.805 170.69,335.472 186.5,334.5C 190.804,335.21 195.137,335.71 199.5,336C 200.8,339.832 200.8,343.666 199.5,347.5 Z"/></g>
<g><path style="opacity:0.273" fill="#a6a6a6" d="M 280.5,353.5 C 281.489,348.025 281.822,342.358 281.5,336.5C 270.5,336.5 259.5,336.5 248.5,336.5C 248.5,342.167 248.5,347.833 248.5,353.5C 247.5,348.262 247.167,342.262 247.5,335.5C 259.167,335.5 270.833,335.5 282.5,335.5C 282.83,341.868 282.496,348.202 281.5,354.5C 280.893,354.376 280.56,354.043 280.5,353.5 Z"/></g>
<g><path style="opacity:0.273" fill="#ababab" d="M 284.5,336.5 C 295.321,335.505 306.321,335.172 317.5,335.5C 317.5,341.167 317.5,346.833 317.5,352.5C 315.833,352.5 314.167,352.5 312.5,352.5C 312.5,354.5 312.5,356.5 312.5,358.5C 314.735,358.205 316.735,358.539 318.5,359.5C 315.5,359.5 312.5,359.5 309.5,359.5C 305.702,358.517 301.702,358.183 297.5,358.5C 301.97,357.514 306.637,357.181 311.5,357.5C 311.5,356.167 311.5,354.833 311.5,353.5C 308.833,353.5 306.167,353.5 303.5,353.5C 302.5,352.833 301.5,352.167 300.5,351.5C 305.833,351.5 311.167,351.5 316.5,351.5C 316.5,346.5 316.5,341.5 316.5,336.5C 305.833,336.5 295.167,336.5 284.5,336.5 Z"/></g>
<g><path style="opacity:1" fill="#171717" d="M 410.5,355.5 C 416.811,360.885 417.144,366.718 411.5,373C 406.563,375.888 401.23,377.055 395.5,376.5C 389.416,376.482 383.416,375.815 377.5,374.5C 377.334,367.825 377.5,361.158 378,354.5C 384.178,358.556 391.011,360.556 398.5,360.5C 399.675,360.719 400.675,360.386 401.5,359.5C 401.376,358.893 401.043,358.56 400.5,358.5C 394.762,358.18 389.095,357.347 383.5,356C 376.983,351.755 375.817,346.255 380,339.5C 390.849,333.341 402.015,332.841 413.5,338C 413.957,338.414 414.291,338.914 414.5,339.5C 413.689,343.793 413.022,348.126 412.5,352.5C 412.36,354.03 411.693,355.03 410.5,355.5 Z M 410.5,355.5 C 404.166,354.75 397.833,353.916 391.5,353C 398.277,350.805 404.61,351.638 410.5,355.5 Z"/></g>
<g><path style="opacity:1" fill="#080808" d="M 96.5,336.5 C 107.167,336.5 117.833,336.5 128.5,336.5C 128.5,341.833 128.5,347.167 128.5,352.5C 126.5,352.5 124.5,352.5 122.5,352.5C 118.116,352.174 113.783,352.508 109.5,353.5C 110.325,354.386 111.325,354.719 112.5,354.5C 116.167,354.5 119.833,354.5 123.5,354.5C 123.5,356.833 123.5,359.167 123.5,361.5C 118.821,361.334 114.155,361.501 109.5,362C 110.531,366.409 111.198,370.909 111.5,375.5C 106.5,375.5 101.5,375.5 96.5,375.5C 96.5,362.5 96.5,349.5 96.5,336.5 Z"/></g>
<g><path style="opacity:1" fill="#070707" d="M 161.5,336.5 C 161.5,341.833 161.5,347.167 161.5,352.5C 158.167,352.5 154.833,352.5 151.5,352.5C 151.5,354.833 151.5,357.167 151.5,359.5C 153.735,359.795 155.735,359.461 157.5,358.5C 159.144,358.714 160.644,358.38 162,357.5C 162.499,363.491 162.666,369.491 162.5,375.5C 151.833,375.5 141.167,375.5 130.5,375.5C 130.334,369.491 130.501,363.491 131,357.5C 134.057,358.451 137.223,358.784 140.5,358.5C 140.5,356.833 140.5,355.167 140.5,353.5C 137.713,352.523 134.713,352.19 131.5,352.5C 131.5,347.167 131.5,341.833 131.5,336.5C 141.5,336.5 151.5,336.5 161.5,336.5 Z"/></g>
<g><path style="opacity:1" fill="#0e0e0e" d="M 222.5,345.5 C 221.532,347.607 221.198,349.941 221.5,352.5C 225.167,352.5 228.833,352.5 232.5,352.5C 232.802,349.941 232.468,347.607 231.5,345.5C 230.586,342.272 230.253,338.939 230.5,335.5C 235.5,335.5 240.5,335.5 245.5,335.5C 245.5,348.833 245.5,362.167 245.5,375.5C 240.5,375.5 235.5,375.5 230.5,375.5C 230.342,372.098 230.676,368.764 231.5,365.5C 232.461,363.735 232.795,361.735 232.5,359.5C 228.833,359.5 225.167,359.5 221.5,359.5C 221.263,360.791 221.596,361.791 222.5,362.5C 223.2,366.798 223.533,371.131 223.5,375.5C 218.5,375.5 213.5,375.5 208.5,375.5C 208.5,362.167 208.5,348.833 208.5,335.5C 213.5,335.5 218.5,335.5 223.5,335.5C 223.747,338.939 223.414,342.272 222.5,345.5 Z"/></g>
<g><path style="opacity:1" fill="#090909" d="M 280.5,353.5 C 278.833,353.5 277.167,353.5 275.5,353.5C 273.735,352.539 271.735,352.205 269.5,352.5C 269.216,354.415 269.549,356.081 270.5,357.5C 271.494,363.456 272.161,369.456 272.5,375.5C 267.125,375.828 261.792,375.495 256.5,374.5C 257.575,368.147 258.575,361.814 259.5,355.5C 260.404,354.791 260.737,353.791 260.5,352.5C 257.615,352.194 254.948,352.527 252.5,353.5C 251.167,353.5 249.833,353.5 248.5,353.5C 248.5,347.833 248.5,342.167 248.5,336.5C 259.5,336.5 270.5,336.5 281.5,336.5C 281.822,342.358 281.489,348.025 280.5,353.5 Z"/></g>
<g><path style="opacity:1" fill="#030303" d="M 284.5,336.5 C 295.167,336.5 305.833,336.5 316.5,336.5C 316.5,341.5 316.5,346.5 316.5,351.5C 311.167,351.5 305.833,351.5 300.5,351.5C 299.325,351.281 298.325,351.614 297.5,352.5C 299.396,353.466 301.396,353.799 303.5,353.5C 306.167,353.5 308.833,353.5 311.5,353.5C 311.5,354.833 311.5,356.167 311.5,357.5C 306.637,357.181 301.97,357.514 297.5,358.5C 301.298,359.483 305.298,359.817 309.5,359.5C 312.5,359.5 315.5,359.5 318.5,359.5C 318.5,364.833 318.5,370.167 318.5,375.5C 307.167,375.5 295.833,375.5 284.5,375.5C 284.5,362.5 284.5,349.5 284.5,336.5 Z"/></g>
<g><path style="opacity:1" fill="#0d0d0d" d="M 345.5,336.5 C 349.567,336.206 352.9,337.54 355.5,340.5C 355.427,342.027 356.094,343.027 357.5,343.5C 359.578,352.007 356.245,356.673 347.5,357.5C 345.473,357.338 343.473,357.505 341.5,358C 344.432,358.953 347.432,359.453 350.5,359.5C 351.609,359.557 352.609,359.89 353.5,360.5C 353.738,362.404 354.738,363.738 356.5,364.5C 358.217,367.845 358.884,371.511 358.5,375.5C 352.833,375.5 347.167,375.5 341.5,375.5C 342.376,372.201 342.543,368.868 342,365.5C 341.777,363.119 340.61,361.453 338.5,360.5C 337.081,359.549 335.415,359.216 333.5,359.5C 333.205,361.735 333.539,363.735 334.5,365.5C 335.414,368.728 335.747,372.061 335.5,375.5C 330.833,375.5 326.167,375.5 321.5,375.5C 321.5,362.5 321.5,349.5 321.5,336.5C 329.5,336.5 337.5,336.5 345.5,336.5 Z M 334.5,352.5 C 337.978,352.184 341.312,352.684 344.5,354C 343.944,354.383 343.611,354.883 343.5,355.5C 340.5,355.5 337.5,355.5 334.5,355.5C 334.5,354.5 334.5,353.5 334.5,352.5 Z"/></g>
<g><path style="opacity:1" fill="#212121" d="M 368.5,355.5 C 367.167,355.167 365.833,354.833 364.5,354.5C 364.733,352.938 365.4,351.605 366.5,350.5C 365.359,348.912 363.859,347.579 362,346.5C 360.721,337.882 364.221,335.049 372.5,338C 375.986,344.963 374.653,350.796 368.5,355.5 Z"/></g>
<g><path style="opacity:0.611" fill="#8f8f8f" d="M 162.5,336.5 C 162.167,336.5 161.833,336.5 161.5,336.5C 151.5,336.5 141.5,336.5 131.5,336.5C 131.5,341.833 131.5,347.167 131.5,352.5C 134.713,352.19 137.713,352.523 140.5,353.5C 137.167,353.5 133.833,353.5 130.5,353.5C 130.5,347.5 130.5,341.5 130.5,335.5C 141.346,335.172 152.013,335.506 162.5,336.5 Z"/></g>
<g><path style="opacity:0.412" fill="#a2a2a2" d="M 345.5,336.5 C 337.5,336.5 329.5,336.5 321.5,336.5C 321.5,349.5 321.5,362.5 321.5,375.5C 320.504,362.344 320.171,349.01 320.5,335.5C 329.017,335.174 337.35,335.507 345.5,336.5 Z"/></g>
<g><path style="opacity:0.337" fill="#a8a8a8" d="M 355.5,340.5 C 356.906,340.973 357.573,341.973 357.5,343.5C 356.094,343.027 355.427,342.027 355.5,340.5 Z"/></g>
<g><path style="opacity:0.55" fill="#767676" d="M 161.5,336.5 C 161.833,336.5 162.167,336.5 162.5,336.5C 162.5,342.167 162.5,347.833 162.5,353.5C 159.167,353.5 155.833,353.5 152.5,353.5C 152.5,355.167 152.5,356.833 152.5,358.5C 154.167,358.5 155.833,358.5 157.5,358.5C 155.735,359.461 153.735,359.795 151.5,359.5C 151.5,357.167 151.5,354.833 151.5,352.5C 154.833,352.5 158.167,352.5 161.5,352.5C 161.5,347.167 161.5,341.833 161.5,336.5 Z"/></g>
<g><path style="opacity:0.91" fill="#454545" d="M 222.5,345.5 C 222.5,347.5 222.5,349.5 222.5,351.5C 225.5,351.5 228.5,351.5 231.5,351.5C 231.5,349.5 231.5,347.5 231.5,345.5C 232.468,347.607 232.802,349.941 232.5,352.5C 228.833,352.5 225.167,352.5 221.5,352.5C 221.198,349.941 221.532,347.607 222.5,345.5 Z"/></g>
<g><path style="opacity:0.597" fill="#757575" d="M 199.5,347.5 C 199.5,349.167 199.5,350.833 199.5,352.5C 202.167,352.5 204.833,352.5 207.5,352.5C 207.5,354.833 207.5,357.167 207.5,359.5C 206.5,359.5 205.5,359.5 204.5,359.5C 204.5,362.833 204.5,366.167 204.5,369.5C 203.518,366.038 203.185,362.371 203.5,358.5C 204.5,358.5 205.5,358.5 206.5,358.5C 206.5,356.833 206.5,355.167 206.5,353.5C 198.167,353.5 189.833,353.5 181.5,353.5C 181.158,352.662 180.492,352.328 179.5,352.5C 180.209,351.596 181.209,351.263 182.5,351.5C 186.5,352.833 190.5,352.833 194.5,351.5C 195.833,351.5 197.167,351.5 198.5,351.5C 198.232,349.901 198.566,348.568 199.5,347.5 Z"/></g>
<g><path style="opacity:0.667" fill="#515151" d="M 252.5,353.5 C 254.948,352.527 257.615,352.194 260.5,352.5C 260.737,353.791 260.404,354.791 259.5,355.5C 257.721,353.656 255.388,352.99 252.5,353.5 Z"/></g>
<g><path style="opacity:0.702" fill="#8d8d8d" d="M 366.5,350.5 C 365.4,351.605 364.733,352.938 364.5,354.5C 363.024,352.291 363.691,350.958 366.5,350.5 Z"/></g>
<g><path style="opacity:0.737" fill="#a5a5a5" d="M 364.5,354.5 C 365.833,354.833 367.167,355.167 368.5,355.5C 366.872,356.853 365.538,356.519 364.5,354.5 Z"/></g>
<g><path style="opacity:0.396" fill="#909090" d="M 334.5,352.5 C 334.5,353.5 334.5,354.5 334.5,355.5C 337.5,355.5 340.5,355.5 343.5,355.5C 340.375,356.479 337.042,356.813 333.5,356.5C 333.232,354.901 333.566,353.568 334.5,352.5 Z"/></g>
<g><path style="opacity:0.604" fill="#757575" d="M 275.5,353.5 C 273.833,353.5 272.167,353.5 270.5,353.5C 270.5,354.833 270.5,356.167 270.5,357.5C 269.549,356.081 269.216,354.415 269.5,352.5C 271.735,352.205 273.735,352.539 275.5,353.5 Z"/></g>
<g><path style="opacity:0.725" fill="#858585" d="M 347.5,357.5 C 348.5,358.167 349.5,358.833 350.5,359.5C 347.432,359.453 344.432,358.953 341.5,358C 343.473,357.505 345.473,357.338 347.5,357.5 Z"/></g>
<g><path style="opacity:0.231" fill="#afafaf" d="M 231.5,365.5 C 231.5,363.833 231.5,362.167 231.5,360.5C 227.988,359.945 224.988,360.612 222.5,362.5C 221.596,361.791 221.263,360.791 221.5,359.5C 225.167,359.5 228.833,359.5 232.5,359.5C 232.795,361.735 232.461,363.735 231.5,365.5 Z"/></g>
<g><path style="opacity:0.616" fill="#5d5d5d" d="M 338.5,360.5 C 337.167,360.5 335.833,360.5 334.5,360.5C 334.5,362.167 334.5,363.833 334.5,365.5C 333.539,363.735 333.205,361.735 333.5,359.5C 335.415,359.216 337.081,359.549 338.5,360.5 Z"/></g>
<g><path style="opacity:0.545" fill="#aaaaaa" d="M 400.5,358.5 C 401.043,358.56 401.376,358.893 401.5,359.5C 400.675,360.386 399.675,360.719 398.5,360.5C 399.167,359.833 399.833,359.167 400.5,358.5 Z"/></g>
<g><path style="opacity:0.788" fill="#919191" d="M 353.5,360.5 C 355.262,361.262 356.262,362.596 356.5,364.5C 354.738,363.738 353.738,362.404 353.5,360.5 Z"/></g>
<g><path style="opacity:0.404" fill="#a8a8a8" d="M 193.5,367.5 C 193.167,367.5 192.833,367.5 192.5,367.5C 192.838,365.146 193.338,362.813 194,360.5C 194.703,362.929 194.537,365.262 193.5,367.5 Z"/></g>
<g><path style="opacity:0.478" fill="#adadad" d="M 192.5,368.5 C 192.833,368.5 193.167,368.5 193.5,368.5C 193.737,369.791 193.404,370.791 192.5,371.5C 192.5,370.833 192.167,370.5 191.5,370.5C 191.328,369.508 191.662,368.842 192.5,368.5 Z"/></g>
<g><path style="opacity:1" fill="#3a3a3a" d="M 267.5,413.5 C 267.214,411.067 266.548,411.067 265.5,413.5C 262.548,414.973 259.881,414.64 257.5,412.5C 258.209,411.596 259.209,411.263 260.5,411.5C 266.266,410.962 268.266,407.962 266.5,402.5C 267.11,401.609 267.443,400.609 267.5,399.5C 267.183,396.428 267.516,393.428 268.5,390.5C 269.086,390.709 269.586,391.043 270,391.5C 270.5,398.826 270.666,406.159 270.5,413.5C 269.5,413.5 268.5,413.5 267.5,413.5 Z"/></g>
<g><path style="opacity:1" fill="#1a1a1a" d="M 202.5,392.5 C 204.017,392.511 205.184,393.177 206,394.5C 206.667,396.833 206.667,399.167 206,401.5C 205.617,402.056 205.117,402.389 204.5,402.5C 203.662,402.158 203.328,401.492 203.5,400.5C 203.519,395.984 201.186,393.984 196.5,394.5C 195.51,400.645 195.177,406.978 195.5,413.5C 194.833,413.5 194.167,413.5 193.5,413.5C 193.5,406.5 193.5,399.5 193.5,392.5C 196.5,392.5 199.5,392.5 202.5,392.5 Z M 196.5,394.5 C 201.186,393.984 203.519,395.984 203.5,400.5C 201.521,402.168 199.188,402.834 196.5,402.5C 196.5,399.833 196.5,397.167 196.5,394.5 Z"/></g>
<g><path style="opacity:0.78" fill="#919191" d="M 273.5,393.5 C 274.675,393.281 275.675,393.614 276.5,394.5C 275.277,395.614 273.944,395.781 272.5,395C 273.056,394.617 273.389,394.117 273.5,393.5 Z"/></g>
<g><path style="opacity:0.196" fill="#c1c1c1" d="M 202.5,392.5 C 199.5,392.5 196.5,392.5 193.5,392.5C 193.5,399.5 193.5,406.5 193.5,413.5C 192.508,406.352 192.175,399.019 192.5,391.5C 196.042,391.187 199.375,391.521 202.5,392.5 Z"/></g>
<g><path style="opacity:1" fill="#4f4f4f" d="M 221.5,398.5 C 221.631,399.239 221.464,399.906 221,400.5C 219.057,399.193 217.223,399.193 215.5,400.5C 209.505,403.777 209.171,407.443 214.5,411.5C 213.662,411.842 213.328,412.508 213.5,413.5C 208.528,411.557 206.694,407.89 208,402.5C 211.436,397.71 215.936,396.377 221.5,398.5 Z"/></g>
<g><path style="opacity:1" fill="#414141" d="M 221.5,413.5 C 221.043,411.443 220.043,411.443 218.5,413.5C 216.716,414.72 215.05,414.72 213.5,413.5C 213.328,412.508 213.662,411.842 214.5,411.5C 219.119,410.873 221.119,408.206 220.5,403.5C 220.5,401.5 219.5,400.5 217.5,400.5C 216.833,400.5 216.167,400.5 215.5,400.5C 217.223,399.193 219.057,399.193 221,400.5C 221.464,399.906 221.631,399.239 221.5,398.5C 222.189,397.226 223.023,397.226 224,398.5C 224.499,403.489 224.666,408.489 224.5,413.5C 223.5,413.5 222.5,413.5 221.5,413.5 Z"/></g>
<g><path style="opacity:1" fill="#4f4f4f" d="M 229.5,398.5 C 229.833,399.833 230.167,401.167 230.5,402.5C 230.5,406.167 230.5,409.833 230.5,413.5C 229.167,413.5 227.833,413.5 226.5,413.5C 226.334,408.489 226.501,403.489 227,398.5C 227.977,397.226 228.811,397.226 229.5,398.5 Z"/></g>
<g><path style="opacity:1" fill="#4a4a4a" d="M 233.5,400.5 C 232.167,400.5 231.5,399.833 231.5,398.5C 233.551,396.962 235.218,397.296 236.5,399.5C 235.675,400.386 234.675,400.719 233.5,400.5 Z"/></g>
<g><path style="opacity:1" fill="#3d3d3d" d="M 247.5,398.5 C 248.548,400.933 249.214,400.933 249.5,398.5C 250.189,397.226 251.023,397.226 252,398.5C 252.499,403.489 252.666,408.489 252.5,413.5C 251.5,413.5 250.5,413.5 249.5,413.5C 249.214,411.067 248.548,411.067 247.5,413.5C 243.944,415.123 240.944,414.456 238.5,411.5C 239.209,410.596 240.209,410.263 241.5,410.5C 245.662,411.915 248.329,410.415 249.5,406C 248.685,402.257 246.352,400.424 242.5,400.5C 240.302,400.591 239.969,399.925 241.5,398.5C 243.389,397.258 245.389,397.258 247.5,398.5 Z"/></g>
<g><path style="opacity:0.004" fill="#e5e5e5" d="M 247.5,398.5 C 248.167,398.5 248.833,398.5 249.5,398.5C 249.214,400.933 248.548,400.933 247.5,398.5 Z"/></g>
<g><path style="opacity:1" fill="#494949" d="M 282.5,397.5 C 287.11,397.12 289.776,399.12 290.5,403.5C 288.071,403.415 286.071,402.415 284.5,400.5C 283.5,400.833 282.833,401.5 282.5,402.5C 284.793,404.052 287.293,405.385 290,406.5C 290.748,413.895 287.582,416.061 280.5,413C 278.845,411.556 278.178,409.722 278.5,407.5C 280.867,408.164 282.867,409.497 284.5,411.5C 285.672,411.081 286.672,410.415 287.5,409.5C 284.629,408.051 281.795,406.385 279,404.5C 278.176,401.16 279.343,398.827 282.5,397.5 Z"/></g>
<g><path style="opacity:1" fill="#3e3e3e" d="M 297.5,398.5 C 299.483,398.157 300.817,398.824 301.5,400.5C 298.911,400.461 296.911,401.461 295.5,403.5C 294.167,405.167 294.167,406.833 295.5,408.5C 298.453,412.476 301.453,412.476 304.5,408.5C 305.492,408.328 306.158,408.662 306.5,409.5C 302.67,415.752 298.17,416.085 293,410.5C 290.329,404.853 291.829,400.853 297.5,398.5 Z"/></g>
<g><path style="opacity:0.804" fill="#8d8d8d" d="M 217.5,400.5 C 219.5,400.5 220.5,401.5 220.5,403.5C 219.167,402.833 218.167,401.833 217.5,400.5 Z"/></g>
<g><path style="opacity:1" fill="#737373" d="M 229.5,398.5 C 230.167,398.5 230.833,398.5 231.5,398.5C 231.5,399.833 232.167,400.5 233.5,400.5C 232.71,401.401 231.71,402.068 230.5,402.5C 230.167,401.167 229.833,399.833 229.5,398.5 Z"/></g>
<g><path style="opacity:1" fill="#4b4b4b" d="M 241.5,398.5 C 239.969,399.925 240.302,400.591 242.5,400.5C 239.021,403.552 238.687,406.886 241.5,410.5C 240.209,410.263 239.209,410.596 238.5,411.5C 233.965,405.971 234.965,401.638 241.5,398.5 Z"/></g>
<g><path style="opacity:0.936" fill="#3b3b3b" d="M 273.5,397.5 C 274.496,397.414 275.329,397.748 276,398.5C 276.499,403.489 276.666,408.489 276.5,413.5C 275.5,413.5 274.5,413.5 273.5,413.5C 273.5,408.167 273.5,402.833 273.5,397.5 Z"/></g>
<g><path style="opacity:0.573" fill="#999999" d="M 196.5,394.5 C 196.5,397.167 196.5,399.833 196.5,402.5C 199.188,402.834 201.521,402.168 203.5,400.5C 203.328,401.492 203.662,402.158 204.5,402.5C 202.039,403.531 199.373,404.198 196.5,404.5C 196.81,407.713 196.477,410.713 195.5,413.5C 195.177,406.978 195.51,400.645 196.5,394.5 Z"/></g>
<g><path style="opacity:1" fill="#4a4a4a" d="M 267.5,399.5 C 267.443,400.609 267.11,401.609 266.5,402.5C 260.325,399.492 257.492,401.492 258,408.5C 259.045,409.373 259.878,410.373 260.5,411.5C 259.209,411.263 258.209,411.596 257.5,412.5C 253.425,409.633 252.592,405.966 255,401.5C 258.616,397.142 262.783,396.476 267.5,399.5 Z"/></g>
<g><path style="opacity:0.61" fill="#5e5e5e" d="M 297.5,398.5 C 303.902,396.875 307.236,399.541 307.5,406.5C 303.029,405.911 299.029,406.577 295.5,408.5C 294.167,406.833 294.167,405.167 295.5,403.5C 296.514,404.765 298.014,405.431 300,405.5C 301.5,405.167 303,404.833 304.5,404.5C 303.476,403.148 302.476,401.815 301.5,400.5C 300.817,398.824 299.483,398.157 297.5,398.5 Z"/></g>
<g><path style="opacity:0.22" fill="#cccccc" d="M 304.5,408.5 C 305.386,407.224 306.386,407.224 307.5,408.5C 307.376,409.107 307.043,409.44 306.5,409.5C 306.158,408.662 305.492,408.328 304.5,408.5 Z"/></g>
<g><path style="opacity:0.263" fill="#bdbdbd" d="M 221.5,413.5 C 220.5,413.5 219.5,413.5 218.5,413.5C 220.043,411.443 221.043,411.443 221.5,413.5 Z"/></g>
<g><path style="opacity:0.016" fill="#e7e7e7" d="M 249.5,413.5 C 248.833,413.5 248.167,413.5 247.5,413.5C 248.548,411.067 249.214,411.067 249.5,413.5 Z"/></g>
<g><path style="opacity:0.016" fill="#e6e6e6" d="M 267.5,413.5 C 266.833,413.5 266.167,413.5 265.5,413.5C 266.548,411.067 267.214,411.067 267.5,413.5 Z"/></g>
</svg>
