<?xml version="1.0" encoding="UTF-8"?>
<!DOCTYPE svg PUBLIC "-//W3C//DTD SVG 1.1//EN" "http://www.w3.org/Graphics/SVG/1.1/DTD/svg11.dtd">
<svg xmlns="http://www.w3.org/2000/svg" version="1.1" width="70px" height="60px" style="shape-rendering:geometricPrecision; text-rendering:geometricPrecision; image-rendering:optimizeQuality; fill-rule:evenodd; clip-rule:evenodd" xmlns:xlink="http://www.w3.org/1999/xlink">
<g><path style="opacity:1" fill="#fefffe" d="M -0.5,-0.5 C 22.8333,-0.5 46.1667,-0.5 69.5,-0.5C 69.5,2.83333 69.5,6.16667 69.5,9.5C 46.1667,9.5 22.8333,9.5 -0.5,9.5C -0.5,6.16667 -0.5,2.83333 -0.5,-0.5 Z"/></g>
<g><path style="opacity:1" fill="#fefffe" d="M -0.5,24.5 C 22.8333,24.5 46.1667,24.5 69.5,24.5C 69.5,27.8333 69.5,31.1667 69.5,34.5C 46.1667,34.5 22.8333,34.5 -0.5,34.5C -0.5,31.1667 -0.5,27.8333 -0.5,24.5 Z"/></g>
<g><path style="opacity:1" fill="#fefffe" d="M -0.5,49.5 C 22.8333,49.5 46.1667,49.5 69.5,49.5C 69.5,52.8333 69.5,56.1667 69.5,59.5C 46.1667,59.5 22.8333,59.5 -0.5,59.5C -0.5,56.1667 -0.5,52.8333 -0.5,49.5 Z"/></g>
</svg>
